<svg width="32" height="32" viewBox="0 0 32 32" fill="none" xmlns="http://www.w3.org/2000/svg">
<path d="M9.40361 25.9362C9.12758 25.9362 8.88981 25.872 8.69029 25.7435C8.49078 25.6123 8.33773 25.4333 8.23115 25.2065C8.12729 24.9796 8.07536 24.7173 8.07536 24.4194C8.07536 24.1269 8.12866 23.8659 8.23525 23.6364C8.34457 23.4068 8.50035 23.2264 8.70259 23.0952C8.90484 22.9613 9.14808 22.8943 9.43231 22.8943C9.67828 22.8943 9.88463 22.9367 10.0513 23.0214C10.2208 23.1062 10.3561 23.2237 10.4572 23.374C10.5583 23.5243 10.6294 23.6979 10.6704 23.8946L10.1128 23.9233C10.0828 23.7511 10.0144 23.6145 9.90786 23.5134C9.804 23.4095 9.64685 23.3576 9.43641 23.3576C9.25056 23.3576 9.09751 23.4054 8.97726 23.5011C8.85974 23.5967 8.77092 23.7252 8.71079 23.8864C8.6534 24.0449 8.6247 24.2226 8.6247 24.4194C8.6247 24.6216 8.6534 24.802 8.71079 24.9605C8.76819 25.119 8.85701 25.2447 8.97726 25.3377C9.10025 25.4279 9.25466 25.473 9.44051 25.473C9.58536 25.473 9.70971 25.4429 9.81357 25.3828C9.91742 25.3226 9.99941 25.2406 10.0595 25.1368C10.1197 25.0302 10.1525 24.9127 10.1579 24.7842H9.44051V24.3702H10.6786V25.8706H10.3342L10.3014 25.2311L10.367 25.2721C10.3369 25.4033 10.2754 25.5194 10.1825 25.6205C10.0923 25.7189 9.97892 25.7968 9.84226 25.8542C9.70835 25.9089 9.56213 25.9362 9.40361 25.9362ZM11.3242 25.8706L12.3737 22.9599H13.0255L14.075 25.8706H13.5175L13.2756 25.1819H12.1236L11.8818 25.8706H11.3242ZM12.2794 24.7268H13.1198L12.7017 23.497L12.2794 24.7268ZM15.8739 25.9362C15.5979 25.9362 15.3601 25.872 15.1606 25.7435C14.9611 25.6123 14.808 25.4333 14.7015 25.2065C14.5976 24.9796 14.5457 24.7173 14.5457 24.4194C14.5457 24.1269 14.599 23.8659 14.7056 23.6364C14.8149 23.4068 14.9707 23.2264 15.1729 23.0952C15.3751 22.9613 15.6184 22.8943 15.9026 22.8943C16.1486 22.8943 16.3549 22.9367 16.5216 23.0214C16.6911 23.1062 16.8264 23.2237 16.9275 23.374C17.0286 23.5243 17.0997 23.6979 17.1407 23.8946L16.5831 23.9233C16.5531 23.7511 16.4848 23.6145 16.3782 23.5134C16.2743 23.4095 16.1172 23.3576 15.9067 23.3576C15.7209 23.3576 15.5678 23.4054 15.4476 23.5011C15.33 23.5967 15.2412 23.7252 15.1811 23.8864C15.1237 24.0449 15.095 24.2226 15.095 24.4194C15.095 24.6216 15.1237 24.802 15.1811 24.9605C15.2385 25.119 15.3273 25.2447 15.4476 25.3377C15.5706 25.4279 15.725 25.473 15.9108 25.473C16.0557 25.473 16.18 25.4429 16.2839 25.3828C16.3877 25.3226 16.4697 25.2406 16.5298 25.1368C16.59 25.0302 16.6228 24.9127 16.6282 24.7842H15.9108V24.3702H17.1489V25.8706H16.8045L16.7717 25.2311L16.8373 25.2721C16.8072 25.4033 16.7458 25.5194 16.6528 25.6205C16.5626 25.7189 16.4492 25.7968 16.3126 25.8542C16.1787 25.9089 16.0324 25.9362 15.8739 25.9362ZM17.7945 25.8706L18.844 22.9599H19.4958L20.5453 25.8706H19.9878L19.7459 25.1819H18.5939L18.3521 25.8706H17.7945ZM18.7497 24.7268H19.5901L19.172 23.497L18.7497 24.7268ZM21.2277 25.8706V22.9599H21.8508L23.1053 25.1491V22.9599H23.6382V25.8706H22.9987L21.7607 23.7429V25.8706H21.2277Z" fill="#F66435"/>
<path d="M11.5752 28.6334C11.4351 28.6334 11.3121 28.6006 11.2062 28.535C11.1019 28.468 11.0206 28.3726 10.9625 28.2488C10.9058 28.1251 10.8775 27.9775 10.8775 27.8061C10.8775 27.6346 10.9058 27.4871 10.9625 27.3633C11.0206 27.2381 11.1019 27.1419 11.2062 27.0749C11.3121 27.0078 11.4351 26.9742 11.5752 26.9742C11.76 26.9742 11.9054 27.0234 12.0112 27.1218C12.1171 27.2202 12.1856 27.3521 12.217 27.5176L12.056 27.5288C12.0336 27.4051 11.9822 27.3067 11.9017 27.2336C11.8226 27.1606 11.7138 27.1241 11.5752 27.1241C11.4664 27.1241 11.3717 27.1516 11.2912 27.2068C11.2107 27.2605 11.1481 27.3387 11.1034 27.4416C11.0586 27.543 11.0363 27.6645 11.0363 27.8061C11.0363 27.9477 11.0586 28.0692 11.1034 28.1706C11.1481 28.2719 11.2107 28.3494 11.2912 28.4031C11.3717 28.4568 11.4664 28.4836 11.5752 28.4836C11.7198 28.4836 11.8331 28.4441 11.9151 28.3651C11.9986 28.2861 12.05 28.1788 12.0694 28.0431L12.2304 28.0543C12.2125 28.1706 12.1752 28.2719 12.1186 28.3584C12.0619 28.4449 11.9881 28.5127 11.8972 28.5619C11.8063 28.6096 11.6989 28.6334 11.5752 28.6334ZM13.7002 28.6334C13.5527 28.6334 13.4252 28.6006 13.3179 28.535C13.212 28.468 13.1308 28.3726 13.0741 28.2488C13.0175 28.1251 12.9892 27.9775 12.9892 27.8061C12.9892 27.6346 13.0175 27.4871 13.0741 27.3633C13.1308 27.2381 13.212 27.1419 13.3179 27.0749C13.4252 27.0078 13.5527 26.9742 13.7002 26.9742C13.8493 26.9742 13.9768 27.0078 14.0826 27.0749C14.1885 27.1419 14.2697 27.2381 14.3264 27.3633C14.3845 27.4871 14.4136 27.6346 14.4136 27.8061C14.4136 27.9775 14.3845 28.1251 14.3264 28.2488C14.2697 28.3726 14.1885 28.468 14.0826 28.535C13.9768 28.6006 13.8493 28.6334 13.7002 28.6334ZM13.7002 28.4836C13.8165 28.4836 13.9157 28.4568 13.9976 28.4031C14.0796 28.3494 14.143 28.2719 14.1877 28.1706C14.2324 28.0692 14.2548 27.9477 14.2548 27.8061C14.2548 27.6645 14.2324 27.543 14.1877 27.4416C14.143 27.3387 14.0796 27.2605 13.9976 27.2068C13.9157 27.1516 13.8165 27.1241 13.7002 27.1241C13.5855 27.1241 13.4863 27.1516 13.4028 27.2068C13.3208 27.2605 13.2575 27.3387 13.2128 27.4416C13.1695 27.543 13.1479 27.6645 13.1479 27.8061C13.1479 27.9477 13.1695 28.0692 13.2128 28.1706C13.2575 28.2719 13.3208 28.3494 13.4028 28.4031C13.4863 28.4568 13.5855 28.4836 13.7002 28.4836ZM15.2583 28.5977V27.01H15.7368C15.9783 27.01 16.1639 27.0793 16.2936 27.218C16.4248 27.3551 16.4903 27.5512 16.4903 27.8061C16.4903 28.0595 16.4262 28.2548 16.298 28.3919C16.1698 28.5291 15.9872 28.5977 15.7502 28.5977H15.2583ZM15.4103 28.4501H15.7368C15.9321 28.4501 16.0796 28.3957 16.1795 28.2868C16.2809 28.178 16.3316 28.0178 16.3316 27.8061C16.3316 27.5914 16.2809 27.4297 16.1795 27.3208C16.0796 27.212 15.9321 27.1576 15.7368 27.1576H15.4103V28.4501ZM17.335 28.5977V27.01H18.3121V27.1576H17.487V27.73H18.2853V27.8754H17.487V28.4501H18.33V28.5977H17.335ZM19.7517 28.6334C19.6339 28.6334 19.5296 28.6103 19.4386 28.5641C19.3492 28.5179 19.2784 28.4545 19.2262 28.374C19.174 28.2921 19.1449 28.1996 19.139 28.0968L19.2977 28.0856C19.3037 28.1646 19.3261 28.2347 19.3648 28.2958C19.4036 28.3554 19.4558 28.4016 19.5214 28.4344C19.587 28.4672 19.6652 28.4836 19.7562 28.4836C19.8352 28.4836 19.9037 28.4724 19.9619 28.4501C20.02 28.4277 20.0647 28.3949 20.096 28.3517C20.1273 28.3085 20.143 28.2563 20.143 28.1952C20.143 28.143 20.1311 28.0968 20.1072 28.0565C20.0834 28.0163 20.0372 27.979 19.9686 27.9447C19.9 27.9104 19.8001 27.8776 19.6689 27.8463C19.5482 27.8165 19.4513 27.7837 19.3782 27.7479C19.3067 27.7122 19.2545 27.6682 19.2217 27.616C19.1889 27.5623 19.1725 27.4953 19.1725 27.4148C19.1725 27.3298 19.1934 27.2545 19.2351 27.1889C19.2769 27.1218 19.3365 27.0696 19.414 27.0324C19.493 26.9936 19.587 26.9742 19.6958 26.9742C19.8121 26.9742 19.9112 26.9973 19.9932 27.0436C20.0752 27.0883 20.1393 27.1487 20.1855 27.2247C20.2317 27.2992 20.2585 27.382 20.266 27.4729L20.1072 27.4841C20.1013 27.417 20.0819 27.3559 20.0491 27.3007C20.0163 27.2456 19.9701 27.2023 19.9104 27.171C19.8508 27.1397 19.7778 27.1241 19.6913 27.1241C19.5795 27.1241 19.4915 27.1509 19.4274 27.2046C19.3633 27.2567 19.3313 27.3253 19.3313 27.4103C19.3313 27.4639 19.3432 27.5087 19.3671 27.5444C19.3909 27.5787 19.4334 27.6093 19.4945 27.6361C19.5556 27.6615 19.6429 27.6883 19.7562 27.7166C19.8963 27.7494 20.0058 27.7889 20.0849 27.8351C20.1654 27.8799 20.222 27.9313 20.2548 27.9894C20.2876 28.0476 20.304 28.1139 20.304 28.1884C20.304 28.2794 20.2794 28.3584 20.2302 28.4255C20.1825 28.4926 20.1169 28.544 20.0334 28.5798C19.9514 28.6155 19.8575 28.6334 19.7517 28.6334Z" fill="#C9C7BA"/>
<circle cx="15.5076" cy="7.21141" r="4.96913" stroke="#C9C7BA" stroke-width="2.48456"/>
<path d="M21.7642 13.4102C21.7642 15.0604 21.1106 16.6437 19.9478 17.8105C18.7849 18.9773 17.2074 19.6328 15.563 19.6328C13.9187 19.6327 12.3419 18.9772 11.1792 17.8105C10.0163 16.6437 9.36279 15.0604 9.36279 13.4102H21.7642ZM11.8423 13.4111C11.8423 14.4011 12.2346 15.3507 12.9321 16.0508C13.6298 16.7509 14.5763 17.1445 15.563 17.1445C16.5497 17.1445 17.4961 16.7509 18.1938 16.0508C18.8915 15.3507 19.2837 14.4012 19.2837 13.4111H11.8423Z" fill="#C9C7BA"/>
<path d="M15.8555 9.29297V8.4043L17.2764 7.24316L15.8555 6.08105V5.19336L18.2227 7.24316L15.8555 9.29297Z" fill="#F66435"/>
<path d="M15.1106 9.29297V8.4043L13.6897 7.24316L15.1106 6.08105V5.19336L12.7434 7.24316L15.1106 9.29297Z" fill="#F66435"/>
</svg>
