<svg width="32" height="32" viewBox="0 0 32 32" fill="none" xmlns="http://www.w3.org/2000/svg">
<path d="M25.4379 2.86958C25.3946 2.86806 25.3705 2.83912 25.3467 2.80852C25.2521 2.68507 25.1308 2.60966 24.9766 2.58393C24.9048 2.57327 24.8333 2.58701 24.7628 2.58095C24.7114 2.5756 24.6882 2.5413 24.6788 2.49599C24.6673 2.445 24.7004 2.41475 24.7394 2.39407C24.8786 2.32202 25.0229 2.30691 25.1739 2.358C25.3661 2.42241 25.4876 2.55281 25.5377 2.74701C25.555 2.81058 25.5025 2.87027 25.4379 2.86958ZM24.5089 2.8254C24.4602 2.81632 24.4231 2.76505 24.4304 2.71605C24.4382 2.66124 24.4875 2.62687 24.5428 2.6361C24.5959 2.64497 24.6296 2.69071 24.6217 2.74324C24.6141 2.79693 24.5633 2.83448 24.5089 2.8254ZM25.7178 2.88473C25.6819 2.59761 25.5269 2.39676 25.2695 2.27962C24.8069 2.06925 24.2639 2.36854 24.1939 2.88161C24.1895 2.88087 24.186 2.88124 24.1823 2.88405C24.1774 2.88685 24.1725 2.88812 24.1679 2.89058C24.1079 2.90207 24.0495 2.91705 23.9928 2.94106C23.6899 3.03049 23.413 3.1739 23.1577 3.3601C23.0214 3.45972 22.8955 3.56721 22.7794 3.68222L23.122 4.01771C23.3792 3.76068 23.6827 3.5629 24.0393 3.43288C24.0535 3.42764 24.0672 3.41984 24.0816 3.41331C24.1463 3.40604 24.2065 3.38034 24.2686 3.3616C24.2897 3.37083 24.2951 3.39075 24.3068 3.4083C24.4927 3.69154 24.8192 3.82135 25.1462 3.74012C25.4628 3.66288 25.6964 3.38576 25.7266 3.05109C25.7326 2.99598 25.7367 2.93942 25.7178 2.88473Z" fill="#F66435"/>
<circle cx="15.9646" cy="10.9993" r="7.99945" stroke="#C9C7BA" stroke-width="3.99972"/>
<path d="M26.0331 21.002C26.0331 23.6535 24.9788 26.1963 23.1034 28.0713C21.2279 29.9462 18.6844 30.9999 16.0321 31C13.3797 31 10.8353 29.9463 8.95984 28.0713C7.08462 26.1964 6.03113 23.6533 6.03113 21.002H10.0321C10.0321 22.5929 10.6636 24.1192 11.7889 25.2441C12.9142 26.3691 14.4407 27.001 16.0321 27.001C17.6235 27.001 19.15 26.369 20.2753 25.2441C21.4006 24.1192 22.0331 22.5929 22.0331 21.002H26.0331Z" fill="#C9C7BA"/>
<path d="M16.5247 14.3496V12.9189L18.8108 11.0488L16.5247 9.17969V7.75L20.3352 11.0498L16.5247 14.3496Z" fill="#F66435"/>
<path d="M15.3252 14.3496V12.9189L13.0391 11.0488L15.3252 9.17969V7.75L11.5146 11.0498L15.3252 14.3496Z" fill="#F66435"/>
</svg>
