<svg width="500" height="500" viewBox="0 0 500 500" fill="none" xmlns="http://www.w3.org/2000/svg">
<rect width="500" height="500" fill="#29292B"/>
<path d="M312.829 108.46C312.54 108.45 312.379 108.257 312.221 108.053C311.59 107.229 310.781 106.727 309.753 106.555C309.274 106.484 308.797 106.576 308.327 106.535C307.984 106.5 307.83 106.271 307.767 105.969C307.691 105.629 307.911 105.427 308.171 105.289C309.1 104.809 310.061 104.708 311.068 105.049C312.35 105.478 313.16 106.348 313.494 107.642C313.609 108.066 313.259 108.464 312.829 108.46ZM306.635 108.165C306.31 108.105 306.063 107.763 306.111 107.436C306.163 107.071 306.492 106.841 306.861 106.903C307.215 106.962 307.439 107.267 307.387 107.617C307.336 107.975 306.998 108.226 306.635 108.165ZM314.695 108.561C314.455 106.646 313.422 105.307 311.706 104.526C308.621 103.124 305.001 105.119 304.534 108.54C304.505 108.535 304.482 108.537 304.457 108.556C304.425 108.575 304.392 108.583 304.361 108.6C303.961 108.676 303.572 108.776 303.194 108.936C301.174 109.532 299.328 110.489 297.626 111.73C296.717 112.394 295.878 113.111 295.104 113.878L297.388 116.114C299.103 114.401 301.126 113.082 303.504 112.215C303.598 112.18 303.69 112.128 303.786 112.085C304.217 112.036 304.619 111.865 305.033 111.74C305.173 111.802 305.209 111.934 305.287 112.051C306.527 113.94 308.703 114.805 310.883 114.264C312.994 113.749 314.552 111.901 314.753 109.67C314.793 109.302 314.82 108.925 314.695 108.561Z" fill="#F66435"/>
<path d="M179.423 358.704C176.461 358.704 173.909 358.015 171.767 356.636C169.626 355.228 167.983 353.307 166.839 350.872C165.725 348.437 165.167 345.621 165.167 342.424C165.167 339.285 165.739 336.484 166.883 334.02C168.057 331.556 169.729 329.62 171.899 328.212C174.07 326.775 176.681 326.056 179.731 326.056C182.371 326.056 184.586 326.511 186.375 327.42C188.194 328.329 189.646 329.591 190.731 331.204C191.817 332.817 192.579 334.68 193.019 336.792L187.035 337.1C186.713 335.252 185.979 333.785 184.835 332.7C183.721 331.585 182.034 331.028 179.775 331.028C177.781 331.028 176.138 331.541 174.847 332.568C173.586 333.595 172.633 334.973 171.987 336.704C171.371 338.405 171.063 340.312 171.063 342.424C171.063 344.595 171.371 346.531 171.987 348.232C172.603 349.933 173.557 351.283 174.847 352.28C176.167 353.248 177.825 353.732 179.819 353.732C181.374 353.732 182.709 353.409 183.823 352.764C184.938 352.119 185.818 351.239 186.463 350.124C187.109 348.98 187.461 347.719 187.519 346.34H179.819V341.896H193.107V358H189.411L189.059 351.136L189.763 351.576C189.441 352.984 188.781 354.231 187.783 355.316C186.815 356.372 185.598 357.208 184.131 357.824C182.694 358.411 181.125 358.704 179.423 358.704ZM200.037 358L211.301 326.76H218.297L229.561 358H223.577L220.981 350.608H208.617L206.021 358H200.037ZM210.289 345.724H219.309L214.821 332.524L210.289 345.724ZM248.869 358.704C245.906 358.704 243.354 358.015 241.213 356.636C239.071 355.228 237.429 353.307 236.285 350.872C235.17 348.437 234.613 345.621 234.613 342.424C234.613 339.285 235.185 336.484 236.329 334.02C237.502 331.556 239.174 329.62 241.345 328.212C243.515 326.775 246.126 326.056 249.177 326.056C251.817 326.056 254.031 326.511 255.821 327.42C257.639 328.329 259.091 329.591 260.177 331.204C261.262 332.817 262.025 334.68 262.465 336.792L256.481 337.1C256.158 335.252 255.425 333.785 254.281 332.7C253.166 331.585 251.479 331.028 249.221 331.028C247.226 331.028 245.583 331.541 244.293 332.568C243.031 333.595 242.078 334.973 241.433 336.704C240.817 338.405 240.509 340.312 240.509 342.424C240.509 344.595 240.817 346.531 241.433 348.232C242.049 349.933 243.002 351.283 244.293 352.28C245.613 353.248 247.27 353.732 249.265 353.732C250.819 353.732 252.154 353.409 253.269 352.764C254.383 352.119 255.263 351.239 255.909 350.124C256.554 348.98 256.906 347.719 256.965 346.34H249.265V341.896H262.553V358H258.857L258.505 351.136L259.209 351.576C258.886 352.984 258.226 354.231 257.229 355.316C256.261 356.372 255.043 357.208 253.577 357.824C252.139 358.411 250.57 358.704 248.869 358.704ZM269.482 358L280.746 326.76H287.742L299.006 358H293.022L290.426 350.608H278.062L275.466 358H269.482ZM279.734 345.724H288.754L284.266 332.524L279.734 345.724ZM306.331 358V326.76H313.019L326.483 350.256V326.76H332.203V358H325.339L312.051 335.164V358H306.331Z" fill="#F66435"/>
<path d="M205.796 391.384C204.292 391.384 202.972 391.032 201.836 390.328C200.716 389.608 199.844 388.584 199.22 387.256C198.612 385.928 198.308 384.344 198.308 382.504C198.308 380.664 198.612 379.08 199.22 377.752C199.844 376.408 200.716 375.376 201.836 374.656C202.972 373.936 204.292 373.576 205.796 373.576C207.78 373.576 209.34 374.104 210.476 375.16C211.612 376.216 212.348 377.632 212.684 379.408L210.956 379.528C210.716 378.2 210.164 377.144 209.3 376.36C208.452 375.576 207.284 375.184 205.796 375.184C204.628 375.184 203.612 375.48 202.748 376.072C201.884 376.648 201.212 377.488 200.732 378.592C200.252 379.68 200.012 380.984 200.012 382.504C200.012 384.024 200.252 385.328 200.732 386.416C201.212 387.504 201.884 388.336 202.748 388.912C203.612 389.488 204.628 389.776 205.796 389.776C207.348 389.776 208.564 389.352 209.444 388.504C210.34 387.656 210.892 386.504 211.1 385.048L212.828 385.168C212.636 386.416 212.236 387.504 211.628 388.432C211.02 389.36 210.228 390.088 209.252 390.616C208.276 391.128 207.124 391.384 205.796 391.384ZM228.604 391.384C227.02 391.384 225.652 391.032 224.5 390.328C223.364 389.608 222.492 388.584 221.884 387.256C221.276 385.928 220.972 384.344 220.972 382.504C220.972 380.664 221.276 379.08 221.884 377.752C222.492 376.408 223.364 375.376 224.5 374.656C225.652 373.936 227.02 373.576 228.604 373.576C230.204 373.576 231.572 373.936 232.708 374.656C233.844 375.376 234.716 376.408 235.324 377.752C235.948 379.08 236.26 380.664 236.26 382.504C236.26 384.344 235.948 385.928 235.324 387.256C234.716 388.584 233.844 389.608 232.708 390.328C231.572 391.032 230.204 391.384 228.604 391.384ZM228.604 389.776C229.852 389.776 230.916 389.488 231.796 388.912C232.676 388.336 233.356 387.504 233.836 386.416C234.316 385.328 234.556 384.024 234.556 382.504C234.556 380.984 234.316 379.68 233.836 378.592C233.356 377.488 232.676 376.648 231.796 376.072C230.916 375.48 229.852 375.184 228.604 375.184C227.372 375.184 226.308 375.48 225.412 376.072C224.532 376.648 223.852 377.488 223.372 378.592C222.908 379.68 222.676 380.984 222.676 382.504C222.676 384.024 222.908 385.328 223.372 386.416C223.852 387.504 224.532 388.336 225.412 388.912C226.308 389.488 227.372 389.776 228.604 389.776ZM245.326 391V373.96H250.462C253.054 373.96 255.046 374.704 256.438 376.192C257.846 377.664 258.55 379.768 258.55 382.504C258.55 385.224 257.862 387.32 256.486 388.792C255.11 390.264 253.15 391 250.606 391H245.326ZM246.958 389.416H250.462C252.558 389.416 254.142 388.832 255.214 387.664C256.302 386.496 256.846 384.776 256.846 382.504C256.846 380.2 256.302 378.464 255.214 377.296C254.142 376.128 252.558 375.544 250.462 375.544H246.958V389.416ZM267.615 391V373.96H278.103V375.544H269.247V381.688H277.815V383.248H269.247V389.416H278.295V391H267.615ZM293.553 391.384C292.289 391.384 291.169 391.136 290.193 390.64C289.233 390.144 288.473 389.464 287.913 388.6C287.353 387.72 287.041 386.728 286.977 385.624L288.681 385.504C288.745 386.352 288.985 387.104 289.401 387.76C289.817 388.4 290.377 388.896 291.081 389.248C291.785 389.6 292.625 389.776 293.601 389.776C294.449 389.776 295.185 389.656 295.809 389.416C296.433 389.176 296.913 388.824 297.249 388.36C297.585 387.896 297.753 387.336 297.753 386.68C297.753 386.12 297.625 385.624 297.369 385.192C297.113 384.76 296.617 384.36 295.881 383.992C295.145 383.624 294.073 383.272 292.665 382.936C291.369 382.616 290.329 382.264 289.545 381.88C288.777 381.496 288.217 381.024 287.865 380.464C287.513 379.888 287.337 379.168 287.337 378.304C287.337 377.392 287.561 376.584 288.009 375.88C288.457 375.16 289.097 374.6 289.929 374.2C290.777 373.784 291.785 373.576 292.953 373.576C294.201 373.576 295.265 373.824 296.145 374.32C297.025 374.8 297.713 375.448 298.209 376.264C298.705 377.064 298.993 377.952 299.073 378.928L297.369 379.048C297.305 378.328 297.097 377.672 296.745 377.08C296.393 376.488 295.897 376.024 295.257 375.688C294.617 375.352 293.833 375.184 292.905 375.184C291.705 375.184 290.761 375.472 290.073 376.048C289.385 376.608 289.041 377.344 289.041 378.256C289.041 378.832 289.169 379.312 289.425 379.696C289.681 380.064 290.137 380.392 290.793 380.68C291.449 380.952 292.385 381.24 293.601 381.544C295.105 381.896 296.281 382.32 297.129 382.816C297.993 383.296 298.601 383.848 298.953 384.472C299.305 385.096 299.481 385.808 299.481 386.608C299.481 387.584 299.217 388.432 298.689 389.152C298.177 389.872 297.473 390.424 296.577 390.808C295.697 391.192 294.689 391.384 293.553 391.384Z" fill="#C9C7BA"/>
<circle cx="249.667" cy="162.667" r="53.3333" stroke="#C9C7BA" stroke-width="26.6666"/>
<path d="M316.803 229.333C316.803 247.014 309.779 263.971 297.277 276.474C284.774 288.976 267.818 296 250.137 296C232.456 296 215.499 288.976 202.996 276.474C190.494 263.971 183.47 247.014 183.47 229.333H316.803ZM210.137 229.334C210.137 239.943 214.351 250.117 221.853 257.618C229.354 265.119 239.529 269.334 250.137 269.334C260.746 269.334 270.92 265.12 278.421 257.618C285.923 250.117 290.137 239.943 290.137 229.334H210.137Z" fill="#C9C7BA"/>
<path d="M253.403 185V175.467L268.646 163L253.403 150.533V141L278.807 163L253.403 185Z" fill="#F66435"/>
<path d="M245.403 185V175.467L230.161 163L245.403 150.533V141L220 163L245.403 185Z" fill="#F66435"/>
</svg>
